<svg id="Layer_1" data-name="Layer 1" xmlns="http://www.w3.org/2000/svg" viewBox="0 0 48 48">
  <defs>
    <style>
      .cls-1 {
        fill: #65c5b5;
      }

      .cls-2 {
        fill: #59c9e4;
      }

      .cls-3 {
        fill: #3395d2;
      }

      .cls-4 {
        fill: #4067b1;
      }

      .cls-5 {
        fill: #3c52a4;
      }

      .cls-6, .cls-7 {
        fill: none;
      }

      .cls-6 {
        stroke: #2e3192;
        stroke-miterlimit: 10;
      }
    </style>
  </defs>
  <g>
    <path class="cls-1" d="M20.47,28.7,19.71,31l-9.29-7.68a2.49,2.49,0,0,1-.73-3,2.44,2.44,0,0,1,2.36-2l12-.59-.76,2.33-10.84.51a.58.58,0,0,0-.59.45.62.62,0,0,0,.21.74Z" transform="translate(0)"/>
    <path class="cls-2" d="M26.38,29.58l2,1.43L18.17,37.48a2.49,2.49,0,0,1-3.1-.24,2.45,2.45,0,0,1-1.16-2.86l3.14-11.57,2,1.43L16.17,34.71a.59.59,0,0,0,.24.71.64.64,0,0,0,.77,0Z" transform="translate(0)"/>
    <path class="cls-3" d="M29,24.21l2-1.42,3,11.67a2.48,2.48,0,0,1-1.19,2.88,2.44,2.44,0,0,1-3.07.22L19.69,31l2-1.44,9.07,6a.6.6,0,0,0,.75,0,.64.64,0,0,0,.26-.72Z" transform="translate(0)"/>
    <path class="cls-4" d="M24.69,20l-.75-2.31,12,.75a2.5,2.5,0,0,1,2.37,2,2.45,2.45,0,0,1-.74,3L28.26,31l-.76-2.33L36,21.89a.6.6,0,0,0,.22-.72.64.64,0,0,0-.61-.47Z" transform="translate(0)"/>
    <path class="cls-5" d="M19.48,22.84H17.05l4.43-11.22A2.49,2.49,0,0,1,24.13,10a2.44,2.44,0,0,1,2.62,1.62L31,22.84H28.56L24.73,12.69a.6.6,0,0,0-.61-.43.64.64,0,0,0-.64.43Z" transform="translate(0)"/>
  </g>
  <circle class="cls-6" cx="24" cy="24" r="17.2"/>
  <rect class="cls-7" width="48" height="48"/>
</svg>
